M48
; DRILL file KiCad 10.0.3 date 2026-07-04T03:45:54
; FORMAT={-:-/ absolute / metric / decimal}
; #@! TF.CreationDate,2026-07-04T03:45:54+05:00
; #@! TF.GenerationSoftware,Kicad,Pcbnew,10.0.3
; #@! TF.FileFunction,Plated,1,2,PTH
FMAT,2
METRIC
; #@! TA.AperFunction,Plated,PTH,ViaDrill
T1C0.300
; #@! TA.AperFunction,Plated,PTH,ComponentDrill
T2C0.500
; #@! TA.AperFunction,Plated,PTH,ComponentDrill
T3C0.550
; #@! TA.AperFunction,Plated,PTH,ComponentDrill
T4C1.000
%
G90
G05
T1
X117.047Y-88.427
X119.143Y-107.229
X132.899Y-98.032
X134.177Y-96.248
X135.054Y-96.959
X136.778Y-93.965
X136.838Y-96.795
X138.134Y-100.09
X138.251Y-98.758
X138.872Y-99.416
X139.077Y-94.367
X139.272Y-100.757
X139.745Y-97.308
X140.904Y-94.37
X141.252Y-97.323
X141.871Y-101.555
X142.07Y-97.59
X142.89Y-77.248
X143.042Y-102.18
X143.49Y-100.713
X143.672Y-81.262
X143.877Y-78.925
X144.947Y-80.885
X144.947Y-83.447
X146.461Y-97.709
X146.836Y-95.161
X148.953Y-101.924
X149.761Y-101.922
X150.674Y-99.775
X150.729Y-81.639
X154.098Y-104.801
X155.147Y-101.939
X158.019Y-103.827
X170.075Y-97.709
X170.7Y-94.72
T4
X114.0Y-83.72
X114.0Y-86.26
X114.0Y-88.8
X114.0Y-91.34
X114.0Y-93.88
X114.0Y-96.42
X114.0Y-98.96
X114.0Y-101.5
X114.0Y-104.04
X114.0Y-106.58
X114.0Y-109.12
X114.0Y-111.66
X114.0Y-114.2
X114.0Y-116.74
X114.0Y-119.28
X168.0Y-83.72
X168.0Y-86.26
X168.0Y-88.8
X168.0Y-91.34
X168.0Y-93.88
X168.0Y-96.42
X168.0Y-98.96
X168.0Y-101.5
X168.0Y-104.04
X168.0Y-106.58
X168.0Y-109.12
X168.0Y-111.66
X168.0Y-114.2
X168.0Y-116.74
X168.0Y-119.28
T2
G00X138.0Y-119.525
M15
G01X138.0Y-118.875
M16
G05
G00X145.0Y-119.525
M15
G01X145.0Y-118.875
M16
G05
T3
G00X139.15Y-121.9
M15
G01X138.85Y-121.9
M16
G05
G00X144.15Y-121.9
M15
G01X143.85Y-121.9
M16
G05
M30
