%TF.GenerationSoftware,KiCad,Pcbnew,10.0.3*%
%TF.CreationDate,2026-07-04T03:45:51+05:00*%
%TF.ProjectId,NanoEvery_Replica,4e616e6f-4576-4657-9279-5f5265706c69,rev?*%
%TF.SameCoordinates,Original*%
%TF.FileFunction,Soldermask,Bot*%
%TF.FilePolarity,Negative*%
%FSLAX46Y46*%
G04 Gerber Fmt 4.6, Leading zero omitted, Abs format (unit mm)*
G04 Created by KiCad (PCBNEW 10.0.3) date 2026-07-04 03:45:51*
%MOMM*%
%LPD*%
G01*
G04 APERTURE LIST*
G04 Aperture macros list*
%AMRoundRect*
0 Rectangle with rounded corners*
0 $1 Rounding radius*
0 $2 $3 $4 $5 $6 $7 $8 $9 X,Y pos of 4 corners*
0 Add a 4 corners polygon primitive as box body*
4,1,4,$2,$3,$4,$5,$6,$7,$8,$9,$2,$3,0*
0 Add four circle primitives for the rounded corners*
1,1,$1+$1,$2,$3*
1,1,$1+$1,$4,$5*
1,1,$1+$1,$6,$7*
1,1,$1+$1,$8,$9*
0 Add four rect primitives between the rounded corners*
20,1,$1+$1,$2,$3,$4,$5,0*
20,1,$1+$1,$4,$5,$6,$7,0*
20,1,$1+$1,$6,$7,$8,$9,0*
20,1,$1+$1,$8,$9,$2,$3,0*%
G04 Aperture macros list end*
%ADD10R,1.700000X1.700000*%
%ADD11C,1.700000*%
%ADD12O,0.890000X1.550000*%
%ADD13O,1.250000X0.950000*%
%ADD14RoundRect,0.075000X0.662500X0.075000X-0.662500X0.075000X-0.662500X-0.075000X0.662500X-0.075000X0*%
%ADD15RoundRect,0.075000X0.075000X0.662500X-0.075000X0.662500X-0.075000X-0.662500X0.075000X-0.662500X0*%
G04 APERTURE END LIST*
D10*
%TO.C,J1*%
X114000000Y-83720000D03*
D11*
X114000000Y-86260000D03*
X114000000Y-88800000D03*
X114000000Y-91340000D03*
X114000000Y-93880000D03*
X114000000Y-96420000D03*
X114000000Y-98960000D03*
X114000000Y-101500000D03*
X114000000Y-104040000D03*
X114000000Y-106580000D03*
X114000000Y-109120000D03*
X114000000Y-111660000D03*
X114000000Y-114200000D03*
X114000000Y-116740000D03*
X114000000Y-119280000D03*
%TD*%
D12*
%TO.C,J3*%
X145000000Y-119200000D03*
D13*
X144000000Y-121900000D03*
X139000000Y-121900000D03*
D12*
X138000000Y-119200000D03*
%TD*%
D10*
%TO.C,J2*%
X168000000Y-83720000D03*
D11*
X168000000Y-86260000D03*
X168000000Y-88800000D03*
X168000000Y-91340000D03*
X168000000Y-93880000D03*
X168000000Y-96420000D03*
X168000000Y-98960000D03*
X168000000Y-101500000D03*
X168000000Y-104040000D03*
X168000000Y-106580000D03*
X168000000Y-109120000D03*
X168000000Y-111660000D03*
X168000000Y-114200000D03*
X168000000Y-116740000D03*
X168000000Y-119280000D03*
%TD*%
D14*
%TO.C,U2*%
X145162500Y-97470000D03*
X145162500Y-97970000D03*
X145162500Y-98470000D03*
X145162500Y-98970000D03*
X145162500Y-99470000D03*
X145162500Y-99970000D03*
X145162500Y-100470000D03*
X145162500Y-100970000D03*
X145162500Y-101470000D03*
X145162500Y-101970000D03*
X145162500Y-102470000D03*
X145162500Y-102970000D03*
D15*
X143750000Y-104382500D03*
X143250000Y-104382500D03*
X142750000Y-104382500D03*
X142250000Y-104382500D03*
X141750000Y-104382500D03*
X141250000Y-104382500D03*
X140750000Y-104382500D03*
X140250000Y-104382500D03*
X139750000Y-104382500D03*
X139250000Y-104382500D03*
X138750000Y-104382500D03*
X138250000Y-104382500D03*
D14*
X136837500Y-102970000D03*
X136837500Y-102470000D03*
X136837500Y-101970000D03*
X136837500Y-101470000D03*
X136837500Y-100970000D03*
X136837500Y-100470000D03*
X136837500Y-99970000D03*
X136837500Y-99470000D03*
X136837500Y-98970000D03*
X136837500Y-98470000D03*
X136837500Y-97970000D03*
X136837500Y-97470000D03*
D15*
X138250000Y-96057500D03*
X138750000Y-96057500D03*
X139250000Y-96057500D03*
X139750000Y-96057500D03*
X140250000Y-96057500D03*
X140750000Y-96057500D03*
X141250000Y-96057500D03*
X141750000Y-96057500D03*
X142250000Y-96057500D03*
X142750000Y-96057500D03*
X143250000Y-96057500D03*
X143750000Y-96057500D03*
%TD*%
M02*
