%TF.GenerationSoftware,KiCad,Pcbnew,10.0.3*%
%TF.CreationDate,2026-07-04T03:45:51+05:00*%
%TF.ProjectId,NanoEvery_Replica,4e616e6f-4576-4657-9279-5f5265706c69,rev?*%
%TF.SameCoordinates,Original*%
%TF.FileFunction,Soldermask,Top*%
%TF.FilePolarity,Negative*%
%FSLAX46Y46*%
G04 Gerber Fmt 4.6, Leading zero omitted, Abs format (unit mm)*
G04 Created by KiCad (PCBNEW 10.0.3) date 2026-07-04 03:45:51*
%MOMM*%
%LPD*%
G01*
G04 APERTURE LIST*
G04 Aperture macros list*
%AMRoundRect*
0 Rectangle with rounded corners*
0 $1 Rounding radius*
0 $2 $3 $4 $5 $6 $7 $8 $9 X,Y pos of 4 corners*
0 Add a 4 corners polygon primitive as box body*
4,1,4,$2,$3,$4,$5,$6,$7,$8,$9,$2,$3,0*
0 Add four circle primitives for the rounded corners*
1,1,$1+$1,$2,$3*
1,1,$1+$1,$4,$5*
1,1,$1+$1,$6,$7*
1,1,$1+$1,$8,$9*
0 Add four rect primitives between the rounded corners*
20,1,$1+$1,$2,$3,$4,$5,0*
20,1,$1+$1,$4,$5,$6,$7,0*
20,1,$1+$1,$6,$7,$8,$9,0*
20,1,$1+$1,$8,$9,$2,$3,0*%
G04 Aperture macros list end*
%ADD10C,0.010000*%
%ADD11RoundRect,0.135000X-0.135000X-0.185000X0.135000X-0.185000X0.135000X0.185000X-0.135000X0.185000X0*%
%ADD12R,1.700000X1.700000*%
%ADD13C,1.700000*%
%ADD14RoundRect,0.140000X-0.140000X-0.170000X0.140000X-0.170000X0.140000X0.170000X-0.140000X0.170000X0*%
%ADD15RoundRect,0.250000X0.450000X0.350000X-0.450000X0.350000X-0.450000X-0.350000X0.450000X-0.350000X0*%
%ADD16RoundRect,0.218750X-0.218750X-0.256250X0.218750X-0.256250X0.218750X0.256250X-0.218750X0.256250X0*%
%ADD17RoundRect,0.062500X-0.350000X-0.062500X0.350000X-0.062500X0.350000X0.062500X-0.350000X0.062500X0*%
%ADD18RoundRect,0.062500X-0.062500X-0.350000X0.062500X-0.350000X0.062500X0.350000X-0.062500X0.350000X0*%
%ADD19R,2.600000X2.600000*%
%ADD20RoundRect,0.100000X0.100000X0.575000X-0.100000X0.575000X-0.100000X-0.575000X0.100000X-0.575000X0*%
%ADD21O,0.890000X1.550000*%
%ADD22RoundRect,0.250000X0.475000X0.525000X-0.475000X0.525000X-0.475000X-0.525000X0.475000X-0.525000X0*%
%ADD23O,1.250000X0.950000*%
%ADD24RoundRect,0.250000X0.500000X0.525000X-0.500000X0.525000X-0.500000X-0.525000X0.500000X-0.525000X0*%
%ADD25RoundRect,0.140000X-0.170000X0.140000X-0.170000X-0.140000X0.170000X-0.140000X0.170000X0.140000X0*%
%ADD26RoundRect,0.250000X-0.250000X-0.475000X0.250000X-0.475000X0.250000X0.475000X-0.250000X0.475000X0*%
%ADD27RoundRect,0.102000X-0.375000X-0.125000X0.375000X-0.125000X0.375000X0.125000X-0.375000X0.125000X0*%
G04 APERTURE END LIST*
D10*
%TO.C,U1*%
X119295000Y-119595000D02*
X119295000Y-120045000D01*
X120245000Y-120045000D01*
X120245000Y-119720000D01*
X120120000Y-119595000D01*
X119295000Y-119595000D01*
G36*
X120245000Y-119720000D02*
G01*
X120245000Y-120045000D01*
X119295000Y-120045000D01*
X119295000Y-119595000D01*
X120120000Y-119595000D01*
X120245000Y-119720000D01*
G37*
%TD*%
D11*
%TO.C,R3*%
X127740000Y-122510000D03*
X128760000Y-122510000D03*
%TD*%
D12*
%TO.C,J1*%
X114000000Y-83720000D03*
D13*
X114000000Y-86260000D03*
X114000000Y-88800000D03*
X114000000Y-91340000D03*
X114000000Y-93880000D03*
X114000000Y-96420000D03*
X114000000Y-98960000D03*
X114000000Y-101500000D03*
X114000000Y-104040000D03*
X114000000Y-106580000D03*
X114000000Y-109120000D03*
X114000000Y-111660000D03*
X114000000Y-114200000D03*
X114000000Y-116740000D03*
X114000000Y-119280000D03*
%TD*%
D11*
%TO.C,R4*%
X135990000Y-95500000D03*
X137010000Y-95500000D03*
%TD*%
D14*
%TO.C,C8*%
X147020000Y-100500000D03*
X147980000Y-100500000D03*
%TD*%
D15*
%TO.C,Y1*%
X151100000Y-78650000D03*
X148900000Y-78650000D03*
X148900000Y-80350000D03*
X151100000Y-80350000D03*
%TD*%
D16*
%TO.C,L1*%
X123922500Y-119740000D03*
X125497500Y-119740000D03*
%TD*%
D17*
%TO.C,U3*%
X139062500Y-78250000D03*
X139062500Y-78750000D03*
X139062500Y-79250000D03*
X139062500Y-79750000D03*
X139062500Y-80250000D03*
X139062500Y-80750000D03*
D18*
X139750000Y-81437500D03*
X140250000Y-81437500D03*
X140750000Y-81437500D03*
X141250000Y-81437500D03*
X141750000Y-81437500D03*
X142250000Y-81437500D03*
D17*
X142937500Y-80750000D03*
X142937500Y-80250000D03*
X142937500Y-79750000D03*
X142937500Y-79250000D03*
X142937500Y-78750000D03*
X142937500Y-78250000D03*
D18*
X142250000Y-77562500D03*
X141750000Y-77562500D03*
X141250000Y-77562500D03*
X140750000Y-77562500D03*
X140250000Y-77562500D03*
X139750000Y-77562500D03*
D19*
X141000000Y-79500000D03*
%TD*%
D14*
%TO.C,C4*%
X116790000Y-119560000D03*
X117750000Y-119560000D03*
%TD*%
D20*
%TO.C,J3*%
X142800000Y-121900000D03*
X142150000Y-121900000D03*
X141500000Y-121900000D03*
X140850000Y-121900000D03*
X140200000Y-121900000D03*
D21*
X145000000Y-119200000D03*
D22*
X144525000Y-119200000D03*
D23*
X144000000Y-121900000D03*
D24*
X142500000Y-119200000D03*
X140500000Y-119200000D03*
D23*
X139000000Y-121900000D03*
D22*
X138475000Y-119200000D03*
D21*
X138000000Y-119200000D03*
%TD*%
D14*
%TO.C,C7*%
X134020000Y-100000000D03*
X134980000Y-100000000D03*
%TD*%
D25*
%TO.C,C11*%
X154000000Y-79520000D03*
X154000000Y-80480000D03*
%TD*%
D12*
%TO.C,J2*%
X168000000Y-83720000D03*
D13*
X168000000Y-86260000D03*
X168000000Y-88800000D03*
X168000000Y-91340000D03*
X168000000Y-93880000D03*
X168000000Y-96420000D03*
X168000000Y-98960000D03*
X168000000Y-101500000D03*
X168000000Y-104040000D03*
X168000000Y-106580000D03*
X168000000Y-109120000D03*
X168000000Y-111660000D03*
X168000000Y-114200000D03*
X168000000Y-116740000D03*
X168000000Y-119280000D03*
%TD*%
D26*
%TO.C,C6*%
X128810000Y-119800000D03*
X130710000Y-119800000D03*
%TD*%
D14*
%TO.C,C1*%
X144520000Y-88000000D03*
X145480000Y-88000000D03*
%TD*%
%TO.C,C2*%
X140520000Y-88000000D03*
X141480000Y-88000000D03*
%TD*%
%TO.C,C9*%
X136520000Y-79500000D03*
X137480000Y-79500000D03*
%TD*%
%TO.C,C5*%
X123830000Y-122370000D03*
X124790000Y-122370000D03*
%TD*%
%TO.C,C10*%
X144520000Y-79500000D03*
X145480000Y-79500000D03*
%TD*%
D11*
%TO.C,R1*%
X116910000Y-121830000D03*
X117930000Y-121830000D03*
%TD*%
D14*
%TO.C,C3*%
X136520000Y-88000000D03*
X137480000Y-88000000D03*
%TD*%
D11*
%TO.C,R2*%
X127560000Y-117430000D03*
X128580000Y-117430000D03*
%TD*%
D27*
%TO.C,U1*%
X119770000Y-120320000D03*
X119770000Y-120820000D03*
X119770000Y-121320000D03*
X121170000Y-121320000D03*
X121170000Y-120820000D03*
X121170000Y-120320000D03*
X121170000Y-119820000D03*
%TD*%
M02*
